<svg xmlns="http://www.w3.org/2000/svg" version="1.1" xmlns:xlink="http://www.w3.org/1999/xlink" xmlns:svgjs="http://svgjs.dev/svgjs" width="1000" height="1000" viewBox="0 0 1000 1000"><rect width="1000" height="1000" fill="#051726"></rect><g transform="matrix(0.7,0,0,0.7,150.50971617192147,92.58016194331981)"><svg viewBox="0 0 212 247" data-background-color="#051726" preserveAspectRatio="xMidYMid meet" height="1165" width="1000" xmlns="http://www.w3.org/2000/svg" xmlns:xlink="http://www.w3.org/1999/xlink"><g id="tight-bounds" transform="matrix(1,0,0,1,-0.1543711834962096,-0.09999999999999432)"><svg viewBox="0 0 212.30874236699242 247.2" height="247.2" width="212.30874236699242"><g><svg viewBox="0 0 397.4975999999999 462.8231773430572" height="247.2" width="212.30874236699242"><g><rect width="397.4975999999999" height="13.53837147726482" x="0" y="203.03662202544362" fill="#ffffff" opacity="1" stroke-width="0" stroke="transparent" fill-opacity="1" class="rect-o-0" data-fill-palette-color="primary" rx="1%" id="o-0" data-palette-color="#ffffff"></rect></g><g transform="matrix(1,0,0,1,0.9887999999999693,252.0157565321975)"><svg viewBox="0 0 395.52 210.80742081085967" height="210.80742081085967" width="395.52"><g id="textblocktransform"><svg viewBox="0 0 395.52 210.80742081085967" height="210.80742081085967" width="395.52" id="textblock"><g><svg viewBox="0 0 395.52 150.1243795620438" height="150.1243795620438" width="395.52"><g transform="matrix(1,0,0,1,0,0)"><svg width="395.52" viewBox="1.5 -35.70000076293945 95.9000015258789 36.400001525878906" height="150.1243795620438" data-palette-color="#ffffff"><path d="M1.5-2.4L1.5-2.4 2.2-8.9 3.9-8.8Q3.9-6.05 7.18-4.38 10.45-2.7 14.63-2.7 18.8-2.7 20.9-3.98 23-5.25 23-7.2L23-7.2Q23-10.5 19.5-13.1L19.5-13.1Q18.05-14.15 16.45-14.95L16.45-14.95Q12.8-16.85 11.88-17.38 10.95-17.9 9.8-18.45 8.65-19 7.68-19.63 6.7-20.25 5.6-21.15L5.6-21.15Q3.1-23.15 3.1-25.63 3.1-28.1 3.98-29.95 4.85-31.8 6.18-32.85 7.5-33.9 9.3-34.6L9.3-34.6Q12.35-35.7 16.13-35.7 19.9-35.7 23.4-33.8L23.4-33.8 22.8-28 21.1-28Q21.1-32.7 13.2-32.7L13.2-32.7Q9.55-32.7 7.73-31.55 5.9-30.4 5.9-28.4L5.9-28.4Q5.9-25.2 16.3-20.7L16.3-20.7Q23.15-17.75 25.05-14.15L25.05-14.15Q26-12.35 26-10.2L26-10.2Q26-5 21.83-2.15 17.65 0.7 11.75 0.7 5.85 0.7 1.5-2.4ZM62.1-1.5L62.1 0 50.7 0 50.7-1.5 51.6-1.5Q52.4-1.5 52.4-1.9L52.4-1.9Q52.4-2.1 51.6-3.3L51.6-3.3 41.4-19.1 37.9-15.6 37.9-3.7Q37.9-2.95 38-2.55 38.1-2.15 38.65-1.83 39.2-1.5 40.3-1.5L40.3-1.5 42.2-1.5 42.2 0 29.5 0 29.5-1.5 31.1-1.5Q32.2-1.5 32.75-1.83 33.3-2.15 33.4-2.55 33.5-2.95 33.5-3.7L33.5-3.7 33.5-31.3Q33.5-32.05 33.4-32.45 33.3-32.85 32.75-33.18 32.2-33.5 31.1-33.5L31.1-33.5 29.5-33.5 29.5-35 42.2-35 42.2-33.5 40.3-33.5Q39.2-33.5 38.65-33.18 38.1-32.85 38-32.45 37.9-32.05 37.9-31.3L37.9-31.3 37.9-18.3 50.8-30.9Q51.8-31.8 51.8-32.5L51.8-32.5Q51.8-33.5 50.3-33.5L50.3-33.5 49.4-33.5 49.4-35 59.3-35 59.3-33.5 58.5-33.5Q57.6-33.5 55.9-32.55 54.2-31.6 53-30.4L53-30.4 44.5-22 55.8-5Q56.4-4.2 56.9-3.4L56.9-3.4Q58.4-1.5 60.9-1.5L60.9-1.5 62.1-1.5ZM65-35L72.7-35 82.2-35.5Q86.59-35.5 89.4-33.65 92.2-31.8 92.2-28.6L92.2-28.6Q92.2-24.15 89.8-21.35 87.4-18.55 83.9-17.1L83.9-17.1 92-4.9Q92.5-4.1 93.92-2.75 95.34-1.4 96.5-1.4L96.5-1.4 97.4-1.4 97.4 0 90 0Q90.15 0 89.05-1.5 87.95-3 87.8-3.3L87.8-3.3 79.5-16.1Q79-16 77.5-16 76-16 75.09-16.1L75.09-16.1 74.7-18.1Q75.4-18 77.7-18 80-18 82.3-18.6 84.59-19.2 86.34-20.88 88.09-22.55 88.09-25.2L88.09-25.2Q88.09-32.6 78.59-32.6L78.59-32.6 73.4-32.4 73.4-3.7Q73.4-2.95 73.5-2.55 73.59-2.15 74.15-1.78 74.7-1.4 75.8-1.4L75.8-1.4 77.7-1.4 77.7 0 65 0 65-1.4 66.59-1.4Q67.7-1.4 68.25-1.78 68.8-2.15 68.9-2.55 69-2.95 69-3.7L69-3.7 69-31.3Q69-32.45 68.52-32.98 68.05-33.5 66.59-33.5L66.59-33.5 65-33.5 65-35Z" opacity="1" transform="matrix(1,0,0,1,0,0)" fill="#ffffff" class="wordmark-text-0" data-fill-palette-color="primary" id="text-0"></path></svg></g></svg></g><g transform="matrix(1,0,0,1,75.54432,185.56514259153286)"><svg viewBox="0 0 244.43135999999998 25.242278219326817" height="25.242278219326817" width="244.43135999999998"><g transform="matrix(1,0,0,1,0,0)"><svg width="244.43135999999998" viewBox="2.049999952316284 -38.099998474121094 414.4100036621094 42.79999923706055" height="25.242278219326817" data-palette-color="#81ffd9"><path d="M27.8-32.4L27.8-32.4Q27-32.75 26.23-32.75 25.45-32.75 24.73-31.8 24-30.85 23.75-29.05L23.75-29.05 21.15-10.5Q20.45-5.45 17.68-2.55 14.9 0.35 10.75 0.35L10.75 0.35Q6.6 0.35 4.33-1.98 2.05-4.3 2.05-7.53 2.05-10.75 4.28-13 6.5-15.25 9.9-15.25L9.9-15.25Q12-15.25 13.2-14.95L13.2-14.95 12.95-11.9Q12.1-12.1 10.33-12.1 8.55-12.1 7.18-10.9 5.8-9.7 5.8-7.9 5.8-6.1 6.8-5.13 7.8-4.15 9.2-4.15L9.2-4.15Q13.4-4.15 14.1-10.35L14.1-10.35Q15.45-22.75 16.05-27.1L16.05-27.1Q13.05-26.05 10.75-26.05L10.75-26.05Q7.1-26.05 5.18-27.75 3.25-29.45 3.25-32.2 3.25-34.95 5.23-36.52 7.2-38.1 10.2-38.1L10.2-38.1Q12.05-38.1 15.53-36.95 19-35.8 20.9-35.8L20.9-35.8Q24.3-35.8 26.6-37.55L26.6-37.55Q27.85-35.8 27.85-33.4L27.85-33.4Q27.85-32.9 27.8-32.4ZM8.2-30.85L8.2-30.85Q8.2-30.1 9.03-29.55 9.85-29 11.53-29 13.2-29 15.9-30.5L15.9-30.5Q13.95-30.95 11.9-31.53 9.85-32.1 9.45-32.1L9.45-32.1Q8.2-32.1 8.2-30.85ZM40.05-5.6L40.05-5.6 41.25-16.75Q41.25-18.1 40.55-19 39.85-19.9 38.22-19.9 36.6-19.9 35.47-18.48 34.35-17.05 34.05-14.9L34.05-14.9Q32.25-1.2 32.15 0L32.15 0 25.4 0 28.15-23.55Q30.25-24.1 31.35-24.1L31.35-24.1Q34.7-24.1 34.85-21.65L34.85-21.65Q37.3-24.05 40.72-24.05 44.15-24.05 46.1-22.35 48.05-20.65 48.05-18.05L48.05-18.05Q48.05-17.35 47.75-15.4L47.75-15.4Q46.6-7.8 46.6-6.55L46.6-6.55Q46.6-4.25 48.15-4.25L48.15-4.25Q51.55-4.25 53.3-11.35L53.3-11.35Q55-9.55 55.35-8.5L55.35-8.5Q52.7 0.3 46.15 0.3L46.15 0.3Q43.05 0.3 41.55-1.6 40.05-3.5 40.05-5.6ZM66-5.6L66-5.6 67.2-16.75Q67.2-18.1 66.5-19 65.8-19.9 64.17-19.9 62.55-19.9 61.42-18.48 60.3-17.05 60-14.9L60-14.9Q58.2-1.2 58.1 0L58.1 0 51.35 0 54.1-23.55Q56.2-24.1 57.3-24.1L57.3-24.1Q60.65-24.1 60.8-21.65L60.8-21.65Q63.25-24.05 66.67-24.05 70.09-24.05 72.05-22.35 74-20.65 74-18.05L74-18.05Q74-17.35 73.7-15.4L73.7-15.4Q72.55-7.8 72.55-6.55L72.55-6.55Q72.55-4.25 74.09-4.25L74.09-4.25Q77.5-4.25 79.25-11.35L79.25-11.35Q80.95-9.55 81.3-8.5L81.3-8.5Q78.65 0.3 72.09 0.3L72.09 0.3Q69 0.3 67.5-1.6 66-3.5 66-5.6ZM90.79-24.05L90.79-24.05Q95.39-24.05 98.47-21.1 101.54-18.15 101.54-13.9L101.54-13.9Q101.54-7.45 97.77-3.58 93.99 0.3 88.64 0.3 83.29 0.3 80.17-2.75 77.04-5.8 77.04-10.3L77.04-10.3Q77.04-16.6 80.89-20.3L80.89-20.3Q84.79-24.05 90.79-24.05ZM89.82-20Q87.44-20 85.84-17.3 84.24-14.6 84.09-10.5L84.09-10.5Q84.09-7.6 85.27-5.7 86.44-3.8 88.84-3.8 91.24-3.8 92.87-6.45 94.49-9.1 94.49-12.5 94.49-15.9 93.34-17.9L93.34-17.9Q92.19-20 89.82-20ZM122.52-8.95Q120.94-4.9 118.02-2.33 115.09 0.25 111.34 0.25 107.59 0.25 105.72-2.23 103.84-4.7 103.84-7.9L103.84-7.9Q103.84-8.55 103.89-9.2L103.89-9.2 105.59-23.45Q107.19-24.05 108.99-24.05L108.99-24.05Q112.29-24.05 112.29-21.6L112.29-21.6Q112.29-21.5 111.47-14.93 110.64-8.35 110.64-7.3L110.64-7.3Q110.64-4.45 113.39-4.45L113.39-4.45Q115.74-4.45 117.34-7.1L117.34-7.1Q120.14-11.9 120.29-17.95L120.29-17.95 119.84-17.95Q117.74-17.95 116.64-18.9L116.64-18.9Q115.39-20 115.39-21.55 115.39-23.1 116.34-24.05L116.34-24.05Q117.49-25.05 119.09-25.05L119.09-25.05Q122.89-25.05 123.84-21.1L123.84-21.1Q125.34-21.3 125.99-21.5L125.99-21.5 125.99-18.65 124.14-18.35 124.14-17.5Q124.09-13 122.52-8.95ZM118.24-21.55L118.24-21.55Q118.24-20.7 119.69-20.7L119.69-20.7Q119.84-20.7 119.99-20.7L119.99-20.7Q119.64-22.05 118.94-22.05 118.24-22.05 118.24-21.55ZM148.64 0.25L148.64 0.25Q144.04 0.25 142.54-2.95L142.54-2.95Q139.94 0.3 135.86 0.3 131.79 0.3 129.01-2.45 126.24-5.2 126.24-9.7L126.24-9.7Q126.24-16.25 130.09-20.15 133.94-24.05 139.84-24.05L139.84-24.05Q139.99-24.05 140.14-24.05L140.14-24.05Q142.64-24.05 144.74-23.2L144.74-23.2Q146.09-24.05 148.01-24.05 149.94-24.05 150.79-23.55L150.79-23.55Q150.34-19.85 149.84-16.28 149.34-12.7 149.14-11.2L149.14-11.2Q148.69-7.8 148.69-6.3L148.69-6.3Q148.69-4.3 150.29-4.3L150.29-4.3Q151.54-4.3 152.94-5.98 154.34-7.65 155.39-11.25L155.39-11.25Q156.84-9.95 157.39-8.35L157.39-8.35Q155.94-3.6 153.49-1.68 151.04 0.25 148.64 0.25ZM140.59-20.15L140.59-20.15Q137.39-20.15 135.51-17.73 133.64-15.3 133.29-10.5L133.29-10.5Q133.24-10.05 133.24-9.65L133.24-9.65Q133.24-7.2 134.41-5.75 135.59-4.3 137.44-4.3L137.44-4.3Q140.59-4.3 142.19-8.75L142.19-8.75 143.39-19.55Q141.94-20.15 140.59-20.15ZM165.09-34.8L165.09-34.8Q165.09-34.5 163.74-24.05L163.74-24.05 171.09-24.05 171.09-20.2 163.24-20.2 163.09-18.95Q168.94-14.05 168.94-8.25L168.94-8.25Q168.94-3.7 166.61-1.7 164.29 0.3 161.04 0.3 157.79 0.3 156.29-1.43 154.79-3.15 154.79-5.6L154.79-5.6Q154.79-6.15 154.89-6.8L154.89-6.8 156.44-20.1 156.24-20.2 152.19-20.2Q152.14-20.7 152.14-21.83 152.14-22.95 152.59-24.05L152.59-24.05 156.89-24.05 158.49-37.65Q159.54-38.05 161.29-38.05L161.29-38.05Q165.09-38.05 165.09-34.8ZM165.59-8.3L165.59-8.3Q165.59-11.75 162.59-15.1L162.59-15.1Q161.69-7.65 161.69-6.5L161.69-6.5Q161.69-4.25 163.14-4.25L163.14-4.25Q164.19-4.25 164.89-5.23 165.59-6.2 165.59-8.3ZM174.78-36.83Q175.93-38 177.58-38 179.23-38 180.41-36.83 181.58-35.65 181.58-34 181.58-32.35 180.41-31.2 179.23-30.05 177.58-30.05 175.93-30.05 174.78-31.2 173.63-32.35 173.63-34 173.63-35.65 174.78-36.83ZM172.73-22.15Q173.23-23.05 174.63-23.53 176.03-24 177.41-24 178.78-24 179.83-23.65L179.83-23.65Q177.88-8.6 177.88-8.45L177.88-8.45Q177.63-7.45 177.63-6.78 177.63-6.1 177.73-5.6L177.73-5.6Q177.93-4.3 179.56-4.3 181.18-4.3 182.56-6.43 183.93-8.55 184.63-11.25L184.63-11.25Q184.98-11.05 185.73-10.05 186.48-9.05 186.63-8.55L186.63-8.55Q185.63-4.55 183.23-2.1L183.23-2.1Q180.83 0.35 177.48 0.35 174.13 0.35 172.51-1.3 170.88-2.95 170.88-5.55L170.88-5.55Q170.88-6.1 170.93-6.7L170.93-6.7 172.73-22.15ZM195.63-24.05L195.63-24.05Q200.23-24.05 203.31-21.1 206.38-18.15 206.38-13.9L206.38-13.9Q206.38-7.45 202.61-3.58 198.83 0.3 193.48 0.3 188.13 0.3 185.01-2.75 181.88-5.8 181.88-10.3L181.88-10.3Q181.88-16.6 185.73-20.3L185.73-20.3Q189.63-24.05 195.63-24.05ZM194.66-20Q192.28-20 190.68-17.3 189.08-14.6 188.93-10.5L188.93-10.5Q188.93-7.6 190.11-5.7 191.28-3.8 193.68-3.8 196.08-3.8 197.71-6.45 199.33-9.1 199.33-12.5 199.33-15.9 198.18-17.9L198.18-17.9Q197.03-20 194.66-20ZM222.78-5.6L222.78-5.6 223.98-16.75Q223.98-18.1 223.28-19 222.58-19.9 220.95-19.9 219.33-19.9 218.2-18.48 217.08-17.05 216.78-14.9L216.78-14.9Q214.98-1.2 214.88 0L214.88 0 208.13 0 210.88-23.55Q212.98-24.1 214.08-24.1L214.08-24.1Q217.43-24.1 217.58-21.65L217.58-21.65Q220.03-24.05 223.45-24.05 226.88-24.05 228.83-22.35 230.78-20.65 230.78-18.05L230.78-18.05Q230.78-17.35 230.48-15.4L230.48-15.4Q229.33-7.8 229.33-6.55L229.33-6.55Q229.33-4.25 230.88-4.25L230.88-4.25Q234.28-4.25 236.03-11.35L236.03-11.35Q237.73-9.55 238.08-8.5L238.08-8.5Q235.43 0.3 228.88 0.3L228.88 0.3Q225.78 0.3 224.28-1.6 222.78-3.5 222.78-5.6ZM276.82-37.45L276.82-37.7Q277.87-38.1 279.77-38.1 281.67-38.1 283.17-37.85L283.17-37.85Q281.62-26.35 280.75-17.03 279.87-7.7 279.8-7.2 279.72-6.7 279.72-6.3L279.72-6.3Q279.77-5 280.97-5L280.97-5Q283.97-5 289.32-11.9L289.32-11.9Q290.27-9.25 290.42-8.35L290.42-8.35Q288.02-4.55 284.65-2.13 281.27 0.3 278.27 0.3 275.27 0.3 274.12-1.25 272.97-2.8 272.97-4.7L272.97-4.7Q272.97-5.15 273.1-6.45 273.22-7.75 275.07-22.65L275.07-22.65 266.87-3.7 262.62-3.7 260.17-22.35 256.67-6.85Q255.82-3.15 253.9-1.4 251.97 0.35 249.67 0.35 247.37 0.35 245.92-1L245.92-1Q244.37-2.45 244.37-5.1L244.37-5.1Q244.37-10.4 252.57-14.15L252.57-14.15Q257.02-35.5 257.37-37.8L257.37-37.8Q258.57-38.1 260.6-38.1 262.62-38.1 263.37-38L263.37-38 263.72-38 266.82-14.75 276.82-37.45ZM247.92-5.95L247.92-5.95Q247.92-4.35 249.17-4.35L249.17-4.35Q250.02-4.35 250.57-5.7L250.57-5.7Q251.27-7.35 251.72-10.05L251.72-10.05Q247.92-7.9 247.92-5.95ZM308.22 0.25L308.22 0.25Q303.62 0.25 302.12-2.95L302.12-2.95Q299.52 0.3 295.45 0.3 291.37 0.3 288.6-2.45 285.82-5.2 285.82-9.7L285.82-9.7Q285.82-16.25 289.67-20.15 293.52-24.05 299.42-24.05L299.42-24.05Q299.57-24.05 299.72-24.05L299.72-24.05Q302.22-24.05 304.32-23.2L304.32-23.2Q305.67-24.05 307.6-24.05 309.52-24.05 310.37-23.55L310.37-23.55Q309.92-19.85 309.42-16.28 308.92-12.7 308.72-11.2L308.72-11.2Q308.27-7.8 308.27-6.3L308.27-6.3Q308.27-4.3 309.87-4.3L309.87-4.3Q311.12-4.3 312.52-5.98 313.92-7.65 314.97-11.25L314.97-11.25Q316.42-9.95 316.97-8.35L316.97-8.35Q315.52-3.6 313.07-1.68 310.62 0.25 308.22 0.25ZM300.17-20.15L300.17-20.15Q296.97-20.15 295.1-17.73 293.22-15.3 292.87-10.5L292.87-10.5Q292.82-10.05 292.82-9.65L292.82-9.65Q292.82-7.2 294-5.75 295.17-4.3 297.02-4.3L297.02-4.3Q300.17-4.3 301.77-8.75L301.77-8.75 302.97-19.55Q301.52-20.15 300.17-20.15ZM324.67-34.8L324.67-34.8Q324.67-34.5 323.32-24.05L323.32-24.05 330.67-24.05 330.67-20.2 322.82-20.2 322.67-18.95Q328.52-14.05 328.52-8.25L328.52-8.25Q328.52-3.7 326.19-1.7 323.87 0.3 320.62 0.3 317.37 0.3 315.87-1.43 314.37-3.15 314.37-5.6L314.37-5.6Q314.37-6.15 314.47-6.8L314.47-6.8 316.02-20.1 315.82-20.2 311.77-20.2Q311.72-20.7 311.72-21.83 311.72-22.95 312.17-24.05L312.17-24.05 316.47-24.05 318.07-37.65Q319.12-38.05 320.87-38.05L320.87-38.05Q324.67-38.05 324.67-34.8ZM325.17-8.3L325.17-8.3Q325.17-11.75 322.17-15.1L322.17-15.1Q321.27-7.65 321.27-6.5L321.27-6.5Q321.27-4.25 322.72-4.25L322.72-4.25Q323.77-4.25 324.47-5.23 325.17-6.2 325.17-8.3ZM341.87-34.8L341.87-34.8Q341.87-34.5 340.52-24.05L340.52-24.05 347.87-24.05 347.87-20.2 340.02-20.2 339.87-18.95Q345.72-14.05 345.72-8.25L345.72-8.25Q345.72-3.7 343.39-1.7 341.06 0.3 337.81 0.3 334.56 0.3 333.06-1.43 331.56-3.15 331.56-5.6L331.56-5.6Q331.56-6.15 331.67-6.8L331.67-6.8 333.22-20.1 333.02-20.2 328.97-20.2Q328.92-20.7 328.92-21.83 328.92-22.95 329.37-24.05L329.37-24.05 333.67-24.05 335.27-37.65Q336.31-38.05 338.06-38.05L338.06-38.05Q341.87-38.05 341.87-34.8ZM342.37-8.3L342.37-8.3Q342.37-11.75 339.37-15.1L339.37-15.1Q338.47-7.65 338.47-6.5L338.47-6.5Q338.47-4.25 339.92-4.25L339.92-4.25Q340.97-4.25 341.67-5.23 342.37-6.2 342.37-8.3ZM357.06-11.2Q360.16-11.85 361.69-13.7 363.21-15.55 363.21-17.28 363.21-19 362.29-19.63 361.36-20.25 360.26-20.25L360.26-20.25Q357.91-20.25 356.14-17.63 354.36-15 354.36-11.38 354.36-7.75 356.09-5.98 357.81-4.2 360.36-4.2L360.36-4.2Q364.11-4.2 367.56-6.8 371.01-9.4 373.16-13.6L373.16-13.6Q374.26-12.55 375.16-11L375.16-11Q373.51-7.25 369.31-3.65L369.31-3.65Q367.21-1.9 364.34-0.8 361.46 0.3 358.41 0.3L358.41 0.3Q353.41 0.3 350.51-2.75L350.51-2.75Q347.41-6.05 347.41-11.2 347.41-16.35 351.29-20.2 355.16-24.05 360.56-24.05L360.56-24.05Q364.41-24.05 366.81-22.38 369.21-20.7 369.26-17.85L369.26-17.85Q369.26-14 366.19-11.6 363.11-9.2 357.76-8.25L357.76-8.25 357.06-11.2ZM385.81-17.5L385.81-17.5Q385.81-19.7 383.79-19.7 381.76-19.7 380.56-17.1L380.56-17.1Q385.96-12.85 385.96-7.55L385.96-7.55Q385.96-3.7 383.81-1.7 381.66 0.3 378.41 0.3 375.16 0.3 373.66-1.73 372.16-3.75 372.16-6.85L372.16-6.85Q372.16-7.8 372.21-8.25L372.21-8.25 373.96-23.5Q375.76-24.05 377.61-24.05L377.61-24.05Q380.66-24.05 380.66-21.8L380.66-21.8 380.66-21.7Q382.66-24.05 385.76-24.05L385.76-24.05Q388.01-24.05 389.26-23.03 390.51-22 390.51-20.3 390.51-18.6 389.24-17.53 387.96-16.45 385.91-16.45L385.91-16.45Q385.81-16.45 385.71-16.45L385.71-16.45Q385.81-17 385.81-17.5ZM382.71-7.8Q382.71-10.7 379.71-13.6L379.71-13.6Q378.81-6.4 378.81-6.35L378.81-6.35Q378.81-4.25 380.51-4.25L380.51-4.25Q382.71-4.25 382.71-7.8L382.71-7.8ZM412.51-15.3L412.51-15.3Q416.46-12.4 416.46-8.45 416.46-4.5 413.36-2.1 410.26 0.3 405.56 0.3L405.56 0.3Q402.51 0.3 400.48-1.23 398.46-2.75 398.46-5 398.46-7.25 399.96-8.58 401.46-9.9 403.71-10.2L403.71-10.2Q402.66-8.7 402.66-7.33 402.66-5.95 403.61-5.1L403.61-5.1Q404.56-4.25 406.01-4.25 407.46-4.25 408.41-5.33 409.36-6.4 409.36-7.8L409.36-7.8Q409.36-10.1 407.21-11.9L407.21-11.9Q405.91-12.95 404.41-13.88 402.91-14.8 402.81-14.85L402.81-14.85Q402.61-15 402.41-15.1L402.41-15.1Q401.51-14.05 399.81-12.23 398.11-10.4 397.11-9.3L397.11-9.3Q394.31-6.25 393.96-4.2L393.96-4.2Q393.86-3.8 393.86-2.68 393.86-1.55 394.53-0.35 395.21 0.85 396.16 1.45 397.11 2.05 398.03 2.43 398.96 2.8 399.63 2.95 400.31 3.1 400.31 3.15L400.31 3.15Q400.31 3.5 399.21 3.95L399.21 3.95Q397.16 4.7 394.93 4.7 392.71 4.7 390.61 3.1L390.61 3.1Q387.76 0.9 387.76-2.75L387.76-2.75Q387.76-5 388.91-7.2L388.91-7.2Q390.96-11.1 398.51-17.9L398.51-17.9Q396.66-19.75 396.66-21.85 396.66-23.95 398.23-25.4 399.81-26.85 401.96-26.85L401.96-26.85Q403.91-26.85 405.36-25.3L405.36-25.3Q406.31-24.25 406.31-22.65 406.31-21.05 405.26-19.05L405.26-19.05Q410.61-16.65 412.51-15.3ZM401.66-20.95L401.66-20.95Q402.86-22.2 402.86-22.75L402.86-22.75Q402.86-24 401.76-24.1L401.76-24.1Q400.51-24.1 400.51-22.7L400.51-22.7Q400.51-21.85 401.66-20.95Z" opacity="1" transform="matrix(1,0,0,1,0,0)" fill="#81ffd9" class="slogan-text-1" data-fill-palette-color="secondary" id="text-1"></path></svg></g></svg></g></svg></g></svg></g><g transform="matrix(1,0,0,1,76.53311999999995,0)"><svg viewBox="0 0 244.43136 167.59585899595456" height="167.59585899595456" width="244.43136"><g><svg xmlns="http://www.w3.org/2000/svg" xmlns:xlink="http://www.w3.org/1999/xlink" version="1.1" x="0" y="0" viewBox="0.8000001907348633 16.299999237060547 98.29999542236328 67.39999389648438" enable-background="new 0 0 100 100" xml:space="preserve" height="167.59585899595456" width="244.43136" class="icon-icon-0" data-fill-palette-color="accent" id="icon-0"><path d="M83.8 70.1c0 1-0.8 1.8-1.8 1.8H60.4c-0.6 1.7-2.2 3-4.1 3H43.6c-1.9 0-3.5-1.2-4.1-3H17.9c-1 0-1.8-0.8-1.8-1.8s0.8-1.8 1.8-1.8h23.2c1 0 1.8 0.8 1.8 1.8v0.4c0 0.4 0.3 0.8 0.8 0.8h12.7c0.4 0 0.8-0.3 0.8-0.8v-0.4c0-1 0.8-1.8 1.8-1.8h23.2C83.1 68.3 83.8 69.1 83.8 70.1zM99.1 70.1v4.7c0 4.9-4 8.9-8.9 8.9H9.7c-4.9 0-8.9-4-8.9-8.9v-4.7c0-1 0.8-1.8 1.8-1.8h5.5V22.1c0-3.2 2.6-5.8 5.8-5.8h72c3.1 0 5.7 2.4 6 5.6 0 0.1 0 0.1 0 0.2v46.2h5.5C98.4 68.3 99.1 69.1 99.1 70.1zM95.6 71.8h-5.5c-1 0-1.8-0.8-1.8-1.8V22.2c-0.2-1.4-1.3-2.4-2.5-2.4h-72c-1.3 0-2.3 1-2.3 2.3v47.9c0 1-0.8 1.8-1.8 1.8H4.4v3c0 3 2.4 5.4 5.4 5.4h80.5c3 0 5.4-2.4 5.4-5.4V71.8zM25.6 43.3c0.3 0.4 0.8 0.6 1.3 0.6 0.4 0 0.8-0.1 1.1-0.4l8.2-7c0.4-0.3 0.6-0.8 0.6-1.3 0-0.5-0.2-1-0.6-1.3l-8.2-7c-0.7-0.6-1.8-0.5-2.5 0.2-0.6 0.7-0.5 1.8 0.2 2.5l6.6 5.6-6.6 5.6C25.1 41.5 25 42.6 25.6 43.3zM42.8 37h30.3c1 0 1.8-0.8 1.8-1.8s-0.8-1.8-1.8-1.8H42.8c-1 0-1.8 0.8-1.8 1.8S41.8 37 42.8 37zM73.1 44.2H35.2c-1 0-1.8 0.8-1.8 1.8s0.8 1.8 1.8 1.8h37.9c1 0 1.8-0.8 1.8-1.8S74 44.2 73.1 44.2zM26.9 58.5h46.1c1 0 1.8-0.8 1.8-1.8S74 55 73.1 55H26.9c-1 0-1.8 0.8-1.8 1.8S26 58.5 26.9 58.5z" fill="#81ffd9" data-fill-palette-color="accent"></path></svg></g></svg></g><g></g></svg></g><defs></defs></svg><rect width="212.30874236699242" height="247.2" fill="none" stroke="none" visibility="hidden"></rect></g></svg></g></svg>